<svg viewBox="0 0 119 49" fill="none" focusable="false" aria-hidden="true" xmlns="http://www.w3.org/2000/svg"><path fill="white" d="m34.083 32.268 6.573 15.21a.22.22 0 0 0 .204.144h4.998c.16 0 .277-.173.204-.317L26.49 2.021a.219.219 0 0 0-.204-.144h-5.61a.219.219 0 0 0-.204.144L.9 47.305c-.059.144.043.317.204.317h4.998a.22.22 0 0 0 .204-.144l6.383-14.75-1.005.404h23.9l-1.5-.864Zm-.801-4.12h-19.34l.423.663 9.007-20.87h.204l9.137 21.144.569-.936ZM87.057 23.165H61.685c-.131 0-.233.101-.233.23v4.523c0 .13.102.23.233.23h20.927l-.32-.417c0 3.788-3.76 15.556-17.343 15.556-11.308 0-18.1-8.642-18.1-18.782 0-9.838 7.141-18.192 18.334-18.192 7.636 0 12.518 3.385 15.01 8.31.044.073.117.13.204.13h5.144c.16 0 .263-.158.22-.302-2.1-6.107-8.395-13.078-20.724-13.078-13.83 0-23.332 10.284-23.332 23.204 0 12.948 8.773 23.664 23.244 23.664 12.942 0 22.545-9.203 22.545-23.434 0-.403 0-.907-.058-1.239-.044-.216-.117-.403-.379-.403ZM101.048 1.863h-4.372c-.132 0-.219.1-.234.23-.364 5.416-4.459 7.562-7.87 7.562-.13 0-.232.1-.232.23v4.537c0 .13.102.23.233.23 3.104-.042 6.82-1.483 8.19-3.254l-.554-.533v36.541c0 .13.102.23.233.23h4.591c.131 0 .233-.1.233-.23V2.122c.015-.159-.087-.26-.218-.26ZM111.817 8.214c.627-.158 1.166-.677 1.166-1.54 0-.966-.772-1.657-2.113-1.657h-2.259v5.804h1.108V8.59h.728c.729 0 .991.36 1.181.907.175.476.306.994.495 1.34h1.122v-.043c-.204-.375-.335-.807-.495-1.34-.204-.634-.394-1.08-.933-1.239Zm-1.005-.49h-1.108v-1.8h1.078c.773 0 1.108.375 1.108.864 0 .562-.393.937-1.078.937Z"></path><path fill="white" d="M110.695 1.373c-3.731 0-6.747 2.981-6.747 6.669 0 3.687 3.016 6.668 6.747 6.668s6.748-2.981 6.748-6.668c0-3.688-3.017-6.67-6.748-6.67Zm0 12.214c-3.089 0-5.611-2.492-5.611-5.545 0-3.054 2.522-5.546 5.611-5.546 3.09 0 5.611 2.492 5.611 5.546 0 3.053-2.507 5.545-5.611 5.545Z"></path></svg>