<svg viewBox="0 0 24 24" fill="none" focusable="false" aria-hidden="true" xmlns="http://www.w3.org/2000/svg"><path d="M21.543 6.78301C21.5576 6.99147 21.5576 7.19993 21.5576 7.41031C21.5576 13.8206 16.6045 21.2137 7.54759 21.2137V21.2098C4.87215 21.2137 2.25229 20.4586 0 19.035C0.389031 19.0811 0.780012 19.1041 1.17197 19.1051C3.38915 19.107 5.54296 18.374 7.28726 17.0244C5.18026 16.985 3.3326 15.6314 2.68714 13.6554C3.42523 13.7957 4.18574 13.7668 4.91018 13.5718C2.61304 13.1146 0.96039 11.126 0.96039 8.81668V8.7552C1.64485 9.13081 2.41121 9.33927 3.19512 9.36232C1.03157 7.9377 0.364656 5.1019 1.67118 2.88475C4.17111 5.91556 7.8596 7.75806 11.8191 7.95307C11.4223 6.26811 11.9644 4.50246 13.2436 3.318C15.2268 1.48126 18.3459 1.57541 20.2101 3.52838C21.3129 3.31416 22.3698 2.91549 23.337 2.35064C22.9694 3.47362 22.2001 4.42754 21.1725 5.0337C22.1484 4.92034 23.102 4.66289 24 4.26999C23.3389 5.246 22.5063 6.09616 21.543 6.78301Z" fill="currentColor"></path></svg>